<svg width="526" height="614" viewBox="0 0 526 614" fill="none" xmlns="http://www.w3.org/2000/svg">
<path d="M76.948 567.303C179.553 628.697 345.9 628.716 448.505 567.303C551.11 505.891 551.095 406.359 448.505 344.966C345.915 283.572 179.553 283.572 76.948 344.966C-25.6568 406.359 -25.6419 505.909 76.948 567.303Z" fill="#AB8AF1"/>
<path d="M448.148 521.931C467.045 521.931 482.364 512.766 482.364 501.46C482.364 490.154 467.045 480.989 448.148 480.989C429.251 480.989 413.931 490.154 413.931 501.46C413.931 512.766 429.251 521.931 448.148 521.931Z" fill="#EBEBEB"/>
<path d="M69.1607 504.395L81.266 495.627C88.0248 488.702 93.169 479.614 96.1557 469.324C99.893 456.387 99.3719 446.553 96.6917 441.618C93.4011 435.542 84.8693 436.608 84.5269 449.395C83.8122 474.596 77.9605 492.075 69.1607 504.395Z" fill="#AB8AF1"/>
<path opacity="0.2" d="M69.1607 504.395L81.266 495.627C88.0248 488.702 93.169 479.614 96.1557 469.324C99.893 456.387 99.3719 446.553 96.6917 441.618C93.4011 435.542 84.8693 436.608 84.5269 449.395C83.8122 474.596 77.9605 492.075 69.1607 504.395Z" fill="black"/>
<path d="M69.1607 505.33C69.0031 505.327 68.8501 505.262 68.7239 505.144C68.5976 505.025 68.5046 504.859 68.4583 504.67C68.4119 504.481 68.4146 504.278 68.4659 504.091C68.5172 503.904 68.6145 503.742 68.7438 503.628C96.7364 479.325 91.3165 445.432 91.257 445.095C91.2365 444.972 91.2354 444.846 91.2538 444.722C91.2723 444.599 91.3099 444.482 91.3645 444.377C91.4191 444.272 91.4897 444.181 91.5721 444.11C91.6546 444.039 91.7474 443.99 91.8451 443.964C91.9429 443.938 92.0438 443.937 92.1419 443.96C92.2401 443.983 92.3337 444.03 92.4174 444.099C92.501 444.168 92.5731 444.256 92.6295 444.36C92.6858 444.463 92.7254 444.58 92.7459 444.702C92.7459 445.058 98.4636 480.11 69.6372 505.161C69.4973 505.282 69.3299 505.341 69.1607 505.33Z" fill="white"/>
<path d="M44.9054 521.987C44.9054 521.987 40.6917 517.687 41.7042 511.854C42.7166 506.021 45.4415 501.834 40.781 494.318C36.1205 486.803 34.8251 476.783 40.3939 471.361C44.6374 467.155 51.2633 473.1 53.6457 462.014C55.4027 453.9 54.8071 435.935 63.0411 429.952C71.2751 423.97 76.4418 432.981 75.1464 445.17C74.0148 456.069 72.4067 466.557 73.6574 469.473C76.0695 475.082 80.194 474.315 80.0004 484.56C79.8366 494.094 72.6449 501.983 72.6449 501.983L44.9054 521.987Z" fill="#AB8AF1"/>
<path d="M58.7379 512.845C58.5559 512.843 58.3806 512.758 58.244 512.607C58.1073 512.456 58.0184 512.249 57.9934 512.022C55.8642 489.869 60.9714 451.619 65.1405 440.253C65.1756 440.127 65.2318 440.012 65.3053 439.915C65.3789 439.819 65.468 439.743 65.5668 439.694C65.6655 439.644 65.7716 439.622 65.8779 439.628C65.9841 439.634 66.0881 439.669 66.1828 439.73C66.2716 439.78 66.3516 439.852 66.4179 439.942C66.4842 440.031 66.5356 440.137 66.5689 440.252C66.6022 440.367 66.6168 440.489 66.6119 440.611C66.6069 440.733 66.5825 440.853 66.5401 440.963C62.4157 452.18 57.4872 490.542 59.5271 511.723C59.548 511.969 59.4909 512.214 59.3682 512.407C59.2454 512.599 59.0671 512.723 58.8719 512.752L58.7379 512.845Z" fill="white"/>
<path d="M58.3358 495.59C58.2219 495.597 58.1086 495.564 58.0082 495.496C52.8415 492.337 49.5658 481.064 49.4318 480.54C49.3953 480.424 49.3777 480.3 49.3802 480.175C49.3826 480.05 49.4049 479.927 49.4459 479.813C49.4869 479.699 49.5456 479.597 49.6187 479.512C49.6917 479.427 49.7776 479.361 49.8712 479.319C49.9648 479.276 50.0642 479.258 50.1636 479.264C50.263 479.271 50.3604 479.302 50.4499 479.357C50.5394 479.412 50.6193 479.488 50.6848 479.582C50.7504 479.677 50.8002 479.786 50.8314 479.905C50.8314 480.017 54.0327 490.935 58.6634 493.758C58.8153 493.85 58.9377 494.005 59.0105 494.196C59.0833 494.387 59.1022 494.603 59.0641 494.81C59.0261 495.016 58.9333 495.2 58.8009 495.332C58.6686 495.463 58.5046 495.535 58.3358 495.534V495.59Z" fill="white"/>
<path d="M58.2466 503.068C58.0974 503.068 57.9518 503.011 57.8293 502.904C57.7069 502.797 57.6135 502.645 57.5617 502.469C57.4876 502.241 57.4883 501.986 57.5636 501.758C57.6389 501.53 57.7827 501.349 57.9637 501.254C66.6593 496.88 72.0791 483.887 72.1387 483.737C72.2295 483.517 72.3864 483.35 72.5749 483.275C72.7634 483.199 72.968 483.221 73.1438 483.335C73.3195 483.449 73.4519 483.646 73.512 483.883C73.572 484.12 73.5547 484.377 73.4639 484.597C73.2257 485.158 67.7314 498.357 58.5742 502.993C58.4722 503.054 58.3592 503.079 58.2466 503.068Z" fill="white"/>
<path d="M362.19 402.49C362.19 402.49 355.683 389.254 355.043 374.877C354.402 360.501 356.919 354.519 360.373 352.799C363.827 351.079 364.095 356.369 365.867 359.491C367.639 362.613 371.257 360.837 372.598 351.097C373.938 341.357 378.821 324.925 388.976 321.728C400.143 318.251 394.158 334.702 391.344 341.114C388.529 347.527 386.356 356.276 388.202 358.65C390.048 361.024 392.922 356.631 395.647 360.707C398.967 365.623 388.649 383.327 382.722 387.608L362.19 402.49Z" fill="#AB8AF1"/>
<path d="M371.109 396.937C371.011 396.932 370.915 396.903 370.826 396.852C370.737 396.8 370.657 396.727 370.591 396.637C370.524 396.547 370.473 396.441 370.439 396.326C370.405 396.21 370.39 396.088 370.394 395.965C371.402 372.839 377.146 350.431 387.07 330.907C387.127 330.805 387.199 330.719 387.282 330.653C387.366 330.587 387.459 330.544 387.556 330.524C387.654 330.505 387.753 330.511 387.849 330.541C387.945 330.572 388.034 330.626 388.113 330.701C388.269 330.847 388.373 331.063 388.404 331.304C388.434 331.546 388.389 331.792 388.276 331.991C378.53 351.229 372.889 373.292 371.898 396.059C371.892 396.181 371.867 396.302 371.824 396.412C371.782 396.523 371.722 396.622 371.648 396.704C371.575 396.785 371.49 396.848 371.397 396.888C371.304 396.928 371.206 396.945 371.109 396.937Z" fill="white"/>
<path d="M371.957 385.889C371.833 385.887 371.71 385.849 371.6 385.776C367.431 382.879 365.123 374.279 365.034 373.924C365.001 373.807 364.987 373.684 364.992 373.56C364.998 373.437 365.023 373.316 365.065 373.205C365.108 373.093 365.168 372.994 365.242 372.912C365.316 372.83 365.402 372.767 365.495 372.727C365.683 372.651 365.887 372.671 366.063 372.783C366.239 372.895 366.372 373.09 366.433 373.326C366.433 373.326 368.667 381.607 372.389 384.131C372.558 384.256 372.681 384.459 372.734 384.695C372.787 384.932 372.765 385.186 372.672 385.403C372.605 385.563 372.501 385.696 372.374 385.782C372.246 385.869 372.101 385.906 371.957 385.889Z" fill="white"/>
<path d="M372.687 380.224C372.522 380.222 372.362 380.151 372.233 380.022C372.103 379.894 372.012 379.715 371.972 379.514C371.948 379.396 371.942 379.273 371.956 379.152C371.97 379.032 372.003 378.916 372.053 378.811C372.103 378.707 372.169 378.616 372.247 378.544C372.325 378.472 372.414 378.42 372.508 378.392C383.259 374.971 386.981 367.904 387.011 367.829C387.064 367.725 387.132 367.635 387.213 367.564C387.293 367.493 387.384 367.442 387.48 367.415C387.576 367.389 387.676 367.386 387.773 367.407C387.87 367.428 387.962 367.473 388.046 367.54C388.129 367.606 388.201 367.692 388.257 367.793C388.314 367.894 388.354 368.009 388.375 368.129C388.397 368.25 388.399 368.375 388.382 368.496C388.365 368.618 388.329 368.735 388.276 368.839C388.113 369.157 384.241 376.579 372.88 380.205L372.687 380.224Z" fill="white"/>
<path d="M200.19 373.438C200.19 373.438 185.911 369.063 185.166 335.487C184.377 299.257 188.665 256.969 171.765 253.548C154.866 250.127 145.485 275.982 145.694 306.174C145.887 332.608 154.374 390.001 200.13 401.256L200.19 373.438Z" fill="#AB8AF1"/>
<path opacity="0.2" d="M200.19 373.438C200.19 373.438 185.911 369.063 185.166 335.487C184.377 299.257 188.665 256.969 171.765 253.548C154.866 250.127 145.485 275.982 145.694 306.174C145.887 332.608 154.374 390.001 200.13 401.256L200.19 373.438Z" fill="black"/>
<path d="M200.19 397.816H200.056C189.767 395.46 181.384 388.338 175.145 376.672C156.652 342.031 162.474 277.346 164.395 266.055C164.438 265.814 164.554 265.604 164.717 265.468C164.881 265.332 165.08 265.281 165.274 265.326C165.466 265.384 165.634 265.533 165.742 265.741C165.85 265.95 165.89 266.203 165.854 266.447C163.963 277.664 158.171 341.526 176.381 375.625C179.032 380.913 182.529 385.452 186.651 388.953C190.772 392.455 195.428 394.843 200.324 395.965C200.421 395.988 200.514 396.034 200.596 396.102C200.679 396.17 200.75 396.257 200.806 396.36C200.861 396.463 200.9 396.578 200.919 396.7C200.939 396.821 200.939 396.946 200.919 397.068C200.888 397.281 200.797 397.473 200.664 397.61C200.53 397.747 200.362 397.82 200.19 397.816Z" fill="white"/>
<path d="M200.19 483.98C185.434 486.485 161.477 486.448 147.644 472.763C133.812 459.079 136.7 447.301 142.016 442.384C147.332 437.468 151.947 431.859 142.805 420.941C133.663 410.024 118.982 392.488 114.217 366.184C109.452 339.881 111.805 323.429 121.155 317.952C130.223 312.642 132.621 321.092 138.174 338.516C143.728 355.939 156.221 341.002 166.911 346.442C177.602 351.883 177.17 362.651 177.84 371.905C178.511 381.159 182.039 383.72 188.099 383.72C194.16 383.72 200.19 388.095 200.19 396.806V483.98Z" fill="#AB8AF1"/>
<path d="M200.19 453.433C200.126 453.451 200.06 453.451 199.996 453.433C199.356 453.209 184.094 447.638 161.864 422.007C138.189 394.713 127.022 353.771 126.903 353.36C126.846 353.124 126.863 352.87 126.952 352.65C127.041 352.431 127.194 352.263 127.379 352.182C127.565 352.104 127.767 352.122 127.943 352.23C128.118 352.338 128.253 352.529 128.317 352.761C128.422 353.173 139.485 393.666 162.876 420.624C184.794 445.918 200.234 451.582 200.398 451.638C200.492 451.673 200.58 451.73 200.656 451.807C200.732 451.884 200.796 451.979 200.843 452.086C200.89 452.194 200.919 452.312 200.93 452.434C200.941 452.556 200.932 452.679 200.905 452.797C200.856 452.986 200.76 453.15 200.632 453.265C200.503 453.379 200.348 453.438 200.19 453.433Z" fill="white"/>
<path d="M168.073 428.513C167.923 428.516 167.777 428.459 167.654 428.352C167.531 428.245 167.438 428.092 167.388 427.914C162.608 412.51 161.521 379.551 161.432 378.149C161.428 377.902 161.5 377.663 161.633 377.482C161.767 377.301 161.951 377.191 162.147 377.177C162.341 377.18 162.528 377.274 162.671 377.439C162.814 377.605 162.903 377.831 162.921 378.074C162.921 378.411 164.038 412.117 168.728 427.241C168.764 427.357 168.781 427.48 168.779 427.604C168.777 427.727 168.755 427.849 168.714 427.962C168.674 428.075 168.617 428.177 168.545 428.262C168.473 428.347 168.389 428.413 168.296 428.457C168.224 428.489 168.149 428.508 168.073 428.513Z" fill="white"/>
<path d="M167.954 450.666C166.581 450.68 165.209 450.592 163.844 450.404C163.746 450.39 163.652 450.351 163.566 450.29C163.48 450.23 163.405 450.148 163.344 450.051C163.283 449.954 163.238 449.843 163.211 449.724C163.185 449.605 163.177 449.48 163.189 449.357C163.201 449.235 163.232 449.116 163.28 449.008C163.328 448.901 163.393 448.806 163.47 448.729C163.548 448.653 163.636 448.596 163.731 448.563C163.826 448.53 163.925 448.52 164.023 448.535C164.157 448.535 178.019 450.517 184.377 442.384C184.443 442.286 184.525 442.206 184.617 442.149C184.709 442.092 184.809 442.06 184.912 442.054C185.014 442.048 185.117 442.069 185.212 442.115C185.308 442.161 185.395 442.231 185.468 442.322C185.541 442.412 185.599 442.521 185.637 442.64C185.675 442.76 185.693 442.888 185.69 443.017C185.687 443.146 185.662 443.272 185.618 443.388C185.574 443.505 185.512 443.608 185.434 443.693C180.833 449.657 172.808 450.666 167.954 450.666Z" fill="white"/>
<path d="M157.233 96.661L155.625 85.0141L147.347 91.8564C146.59 89.9871 145.518 88.3474 144.205 87.0519L148.165 73.5916L140.721 71.5165L135.271 84.6028C133.299 85.0205 131.388 85.8016 129.598 86.921L127.231 77.0501L118.386 85.7806L118.967 97.3714C117.166 99.9045 115.532 102.618 114.083 105.485L106.787 105.018L101.665 119.431L107.934 122.796C107.279 125.778 106.865 128.834 106.698 131.919L98.7317 141.117L100.325 152.783L108.618 145.941C109.371 147.808 110.444 149.443 111.76 150.726L107.874 164.205L115.319 166.262L123.121 156.727C124.923 156.372 124.476 152.11 126.441 150.895L128.809 160.728L137.638 152.016L137.415 147.455C139.202 144.95 145.962 139.435 147.421 136.556L149.252 132.817L154.374 118.403L151.992 112.982L149.342 105.915L157.233 96.661ZM130.209 135.004C123.419 141.697 121.275 143.174 120.128 134.219C118.982 125.264 122.868 111.654 129.658 104.943C136.447 98.2314 139.038 97.764 140.259 106.7C141.48 115.636 137.013 128.386 130.209 135.004Z" fill="#E0E0E0"/>
<path d="M140.78 71.5165L150.443 78.5083L144.994 91.5573L135.33 84.5655L140.78 71.5165Z" fill="#F5F5F5"/>
<path d="M165.289 92.006L157.01 98.8483L147.346 91.8565L155.625 85.0142L165.289 92.006Z" fill="#F5F5F5"/>
<path d="M163.963 125.339L157.695 121.992L148.031 115.001L154.3 118.347L163.963 125.339Z" fill="#E0E0E0"/>
<path d="M107.859 164.205L117.522 171.179L121.483 157.718L111.82 150.726L107.859 164.205Z" fill="#E0E0E0"/>
<path d="M138.383 167.72L128.734 160.728L126.367 150.895L136.03 157.887L138.383 167.72Z" fill="#E0E0E0"/>
<path d="M166.882 103.653L165.288 92.006L157.01 98.8483C156.248 96.978 155.171 95.3385 153.853 94.0437L157.814 80.5834L150.443 78.5083L144.979 91.5947C143.007 92.0123 141.096 92.7935 139.306 93.9128L136.953 84.0793L128.109 92.8098L128.69 104.401C126.887 106.952 125.253 109.684 123.806 112.57L116.495 112.103L111.373 126.517L117.641 129.882C116.993 132.871 116.579 135.933 116.406 139.023L108.455 148.09L110.048 159.756L118.326 152.914C119.089 154.779 120.166 156.412 121.483 157.7L117.522 171.16L124.967 173.235L130.417 160.149C132.396 159.736 134.314 158.948 136.105 157.812L138.457 167.645L147.302 158.933L146.721 147.343C148.522 144.81 150.155 142.096 151.605 139.229L158.916 139.678L164.038 125.264L157.68 121.918C158.339 118.931 158.758 115.868 158.931 112.776L166.882 103.653ZM139.887 142.071C133.112 148.763 126.62 146.95 125.384 138.014C124.148 129.078 128.66 116.384 135.45 109.691C142.239 102.999 148.716 104.831 149.952 113.767C151.188 122.703 146.676 135.378 139.887 142.071Z" fill="#EBEBEB"/>
<path d="M136.953 84.042L127.29 77.0502L118.446 85.7806L128.109 92.7725L136.953 84.042Z" fill="#F5F5F5"/>
<path d="M118.446 85.7806L119.026 97.3714L128.69 104.363L128.109 92.7725L118.446 85.7806Z" fill="#E0E0E0"/>
<path d="M123.806 112.477L114.143 105.485L106.847 105.036L116.495 112.028L123.806 112.477Z" fill="#F5F5F5"/>
<path d="M106.846 105.036L101.724 119.431L111.373 126.423L116.495 112.028L106.846 105.036Z" fill="#E0E0E0"/>
<path d="M116.406 138.911L106.757 131.919L98.7912 141.117L108.44 148.109L116.406 138.911Z" fill="#F5F5F5"/>
<path d="M110.048 159.775L100.384 152.783L98.7912 141.117L108.44 148.109L110.048 159.775Z" fill="#E0E0E0"/>
<path d="M150.443 78.5083L140.78 71.5165L148.165 73.5916L157.814 80.5835L150.443 78.5083Z" fill="#F5F5F5"/>
<path d="M113.964 43.7921V26.3872L102.931 32.6313C102.346 29.6783 101.337 26.8843 99.9526 24.3868L106.906 6.79501L98.419 0.644409L89.7532 17.0024C87.3383 16.7375 84.9051 17.0354 82.5764 17.881L81.3554 2.75693L69.3544 11.4687L68.1483 28.2941C65.5364 31.1998 63.1348 34.3904 60.9715 37.8284L52.3057 34.0894L43.8186 52.5599L50.7571 60.0379C49.4751 64.1087 48.4786 68.3123 47.7792 72.6008L36.746 82.3408V99.7644L47.7792 93.5203C48.3636 96.4732 49.3728 99.2673 50.7571 101.765L43.8483 119.375L52.3354 125.526L61.0012 109.168C63.4162 109.432 65.8492 109.134 68.1781 108.289L69.3841 123.413L81.3852 114.702L82.6062 97.8762C86.3519 96.1603 89.6701 93.2323 92.2249 89.3888L98.4488 92.1369L106.936 73.6851L101.725 68.0766C102.856 63.3998 103.275 58.4973 102.96 53.6255L113.964 43.7921ZM75.3549 87.2762C66.1531 93.9503 60.4652 89.1457 60.4652 75.8537C60.4652 62.5617 68.0738 46.1289 77.2906 39.4549C86.5073 32.7808 92.076 37.5854 92.076 50.9896C92.076 64.3938 84.5716 80.5835 75.3549 87.2762Z" fill="#E0E0E0"/>
<path d="M108.068 7.61758L98.419 0.644409L89.7532 17.0024L99.4017 23.9943L108.068 7.61758Z" fill="#F5F5F5"/>
<path d="M123.627 33.3791L113.964 26.3872L102.93 32.6313L112.594 39.6231L123.627 33.3791Z" fill="#F5F5F5"/>
<path d="M79.0029 130.405L69.3544 123.413L68.1483 108.289L77.7968 115.281L79.0029 130.405Z" fill="#E0E0E0"/>
<path d="M43.8037 119.375L53.4671 126.367L60.4206 108.775L50.7572 101.783L43.8037 119.375Z" fill="#E0E0E0"/>
<path d="M123.627 50.8773V33.4725L112.594 39.6604C112.016 36.7048 111.006 33.9095 109.616 31.416L116.57 13.8242L108.082 7.65491L99.4166 24.0316C97.0016 23.7575 94.5671 24.0555 92.2398 24.9102L91.0188 9.74873L79.0177 18.4605L77.7968 35.2859C75.1887 38.1965 72.7873 41.3866 70.62 44.8202L61.9542 41.0813L53.467 59.5517L60.4205 67.0297C59.1317 71.0975 58.1351 75.3019 57.4426 79.5926L46.4093 89.3326V106.756L57.4426 100.512C58.0205 103.468 59.0303 106.263 60.4205 108.757L53.467 126.348L61.9542 132.499L70.62 116.141C73.0349 116.406 75.4681 116.108 77.7968 115.262L79.0177 130.386L91.0188 121.675L92.2249 104.849C94.8367 101.944 97.2384 98.7529 99.4017 95.3149L108.068 99.0539L116.555 80.6021L109.601 73.1242C110.89 69.0562 111.886 64.8518 112.579 60.5613L123.627 50.8773ZM85.0183 94.3615C75.8016 101.036 68.3269 95.614 68.3269 82.2659C68.3269 68.9178 75.7718 52.672 85.0183 45.9793C94.2648 39.2865 101.695 44.7267 101.695 58.0748C101.695 71.423 94.2201 87.5753 85.0183 94.268V94.3615Z" fill="#EBEBEB"/>
<path d="M60.9714 37.8659L70.62 44.8577L61.9542 41.0627L52.3056 34.0521L60.9714 37.8659Z" fill="#F0F0F0"/>
<path d="M52.3046 34.0711L43.8152 52.5479L53.4753 59.5448L61.9648 41.0681L52.3046 34.0711Z" fill="#F5F5F5"/>
<path d="M43.8037 52.5226L53.4671 59.5145L60.4206 67.0298L50.7572 60.0566L43.8037 52.5226Z" fill="#E0E0E0"/>
<path d="M47.7792 72.6195L57.4426 79.6114L46.4093 89.3514L36.7459 82.3595L47.7792 72.6195Z" fill="#F5F5F5"/>
<path d="M36.7459 82.3595L46.4093 89.3514V106.775L36.7459 99.7831V82.3595Z" fill="#E0E0E0"/>
<path d="M91.0187 9.74882L81.3553 2.75696L69.3542 11.4687L79.0028 18.4606L91.0187 9.74882Z" fill="#F5F5F5"/>
<path d="M214.901 508.994L354.864 407.519C355.172 407.382 355.439 407.129 355.628 406.795C355.817 406.46 355.919 406.059 355.919 405.649C355.919 405.239 355.817 404.838 355.628 404.504C355.439 404.169 355.172 403.916 354.864 403.78L341.925 394.432C341.123 393.926 340.238 393.662 339.341 393.662C338.444 393.662 337.559 393.926 336.758 394.432L196.75 495.814C196.442 495.95 196.175 496.203 195.986 496.538C195.797 496.873 195.695 497.273 195.695 497.684C195.695 498.094 195.797 498.494 195.986 498.829C196.175 499.164 196.442 499.417 196.75 499.553L209.734 508.901C210.53 509.421 211.411 509.701 212.309 509.717C213.206 509.734 214.094 509.486 214.901 508.994Z" fill="#E0E0E0"/>
<path d="M351.022 15.7311L224.817 107.224C222.941 108.761 221.38 110.831 220.26 113.267C219.14 115.703 218.492 118.436 218.37 121.245V497.141C218.37 502.301 221.259 504.395 224.817 501.815L351.022 410.323C352.901 408.789 354.464 406.719 355.585 404.282C356.705 401.846 357.351 399.111 357.47 396.302V20.4048C357.47 15.2451 354.596 13.1512 351.022 15.7311Z" fill="#455A64"/>
<path d="M224.817 107.224L351.022 15.7311C354.209 13.413 356.844 14.8525 357.38 18.8719C357.082 16.3448 356.362 13.9255 355.266 11.7731C354.17 9.62069 352.724 7.78396 351.022 6.38374L345.781 2.64477C343.783 1.37203 341.574 0.70874 339.334 0.70874C337.093 0.70874 334.885 1.37203 332.887 2.64477L206.667 94.0625C204.766 95.5591 203.198 97.6367 202.111 100.101L220.261 113.187C221.348 110.743 222.917 108.689 224.817 107.224Z" fill="#37474F"/>
<path d="M200.19 483.98C200.312 486.789 200.959 489.522 202.08 491.958C203.2 494.394 204.761 496.464 206.637 498.001L211.893 501.74C213.712 502.883 215.703 503.53 217.735 503.64C219.768 503.749 221.795 503.319 223.686 502.376C220.708 503.834 218.34 501.684 218.34 497.067V121.245C218.415 118.424 219.066 115.675 220.231 113.262L202.081 100.176C200.932 102.571 200.282 105.29 200.19 108.084V483.98Z" fill="#263238"/>
<path d="M228.287 157.307L347.598 70.8435C349.742 69.3105 351.469 70.5631 351.469 73.6477V351.864C351.397 353.55 351.009 355.191 350.337 356.653C349.664 358.115 348.725 359.357 347.598 360.277L228.331 446.74C226.187 448.292 224.46 447.039 224.46 443.936V165.72C224.528 164.039 224.909 162.402 225.574 160.94C226.239 159.479 227.168 158.234 228.287 157.307Z" fill="white"/>
<path d="M287.92 75.7229C287.261 76.2658 286.713 76.9951 286.32 77.8524C285.927 78.7096 285.7 79.6707 285.657 80.6583C285.657 82.5278 286.669 83.2195 287.92 82.3035C288.581 81.764 289.131 81.0354 289.524 80.1775C289.917 79.3196 290.143 78.3568 290.183 77.3681C290.183 75.5547 289.171 74.8256 287.92 75.7229Z" fill="#37474F"/>
<path d="M287.92 416.81C285.317 418.948 283.152 421.826 281.6 425.21C280.047 428.594 279.152 432.39 278.986 436.29C278.986 443.45 282.991 446.366 287.92 442.777C290.522 440.638 292.687 437.76 294.239 434.376C295.791 430.992 296.686 427.196 296.854 423.297C296.883 416.137 292.863 413.22 287.92 416.81Z" fill="#37474F"/>
<path d="M266.494 104.662C265.185 105.753 264.099 107.215 263.323 108.929C262.547 110.644 262.103 112.564 262.027 114.533C262.027 118.16 264.052 119.637 266.494 117.824C267.816 116.743 268.917 115.286 269.706 113.571C270.495 111.856 270.95 109.931 271.035 107.953C271.035 104.326 269.01 102.849 266.494 104.662Z" fill="#37474F"/>
<path d="M277.616 103.429C277.616 105.859 279.105 106.775 280.847 105.485L310.627 83.8551C311.549 83.1317 312.323 82.1452 312.884 80.9757C313.445 79.8062 313.779 78.4869 313.858 77.1249C313.858 74.7133 312.369 73.7972 310.627 75.0872L280.847 96.7171C279.927 97.4386 279.155 98.4222 278.593 99.5882C278.032 100.754 277.697 102.07 277.616 103.429Z" fill="#37474F"/>
<path d="M210.255 169.347C211.312 170.211 212.192 171.375 212.823 172.746C213.454 174.117 213.819 175.655 213.888 177.236C213.888 180.152 212.265 181.33 210.255 179.872C209.202 179.004 208.326 177.839 207.698 176.468C207.069 175.098 206.706 173.561 206.637 171.983C206.637 169.085 208.26 167.907 210.255 169.347Z" fill="#37474F"/>
<path d="M210.255 204.455C211.312 205.32 212.192 206.484 212.823 207.855C213.454 209.226 213.819 210.764 213.888 212.345C213.888 215.242 212.265 216.42 210.255 214.981C209.202 214.113 208.326 212.947 207.698 211.577C207.069 210.207 206.706 208.67 206.637 207.091C206.637 204.175 208.26 202.997 210.255 204.455Z" fill="#37474F"/>
<path d="M209.124 170.057C210.18 170.921 211.06 172.086 211.691 173.456C212.322 174.827 212.687 176.365 212.757 177.946C212.757 180.844 211.134 182.022 209.124 180.582C208.067 179.718 207.187 178.553 206.556 177.183C205.925 175.812 205.56 174.274 205.491 172.693C205.505 169.777 207.128 168.655 209.124 170.057Z" fill="#455A64"/>
<path d="M209.124 205.147C210.182 206.013 211.063 207.181 211.694 208.555C212.326 209.929 212.69 211.471 212.757 213.055C212.757 215.953 211.134 217.13 209.124 215.672C208.065 214.811 207.183 213.648 206.552 212.276C205.92 210.905 205.556 209.365 205.491 207.783C205.505 204.885 207.128 203.708 209.124 205.147Z" fill="#455A64"/>
<path d="M375.62 82.453C375.62 79.3496 373.893 78.0971 371.749 79.6487L357.47 89.987L252.482 166.112C251.355 167.032 250.416 168.274 249.743 169.736C249.071 171.198 248.683 172.839 248.611 174.525V452.667C248.611 455.77 250.338 457.022 252.482 455.471L357.514 379.327L371.749 369.007C372.876 368.087 373.815 366.846 374.488 365.384C375.16 363.922 375.549 362.281 375.62 360.595V82.453Z" fill="white"/>
<path d="M377.109 82.453C377.203 81.5155 377.074 80.5641 376.739 79.7178C376.405 78.8716 375.879 78.168 375.227 77.6951C374.576 77.2223 373.828 77.0011 373.076 77.0593C372.325 77.1175 371.605 77.4525 371.004 78.0224L357.38 87.9119L251.738 164.561C250.378 165.639 249.247 167.116 248.443 168.865C247.639 170.614 247.185 172.582 247.122 174.6V452.667C247.062 453.6 247.205 454.536 247.536 455.376C247.866 456.215 248.371 456.926 248.998 457.434C249.531 457.823 250.139 458.023 250.755 458.013C251.628 457.979 252.479 457.664 253.227 457.097L358.944 380.449L372.538 370.596C373.89 369.508 375.015 368.028 375.818 366.282C376.621 364.535 377.079 362.572 377.154 360.557L377.109 82.453ZM357.41 377.252L356.189 378.149L251.797 453.826C251.622 453.995 251.419 454.113 251.202 454.171C250.986 454.229 250.762 454.226 250.547 454.162C250.353 454.013 250.16 453.489 250.16 452.629V174.525C250.237 173.168 250.558 171.85 251.1 170.671C251.641 169.492 252.389 168.483 253.286 167.72L357.574 92.0061L372.463 81.1818C372.639 81.0125 372.842 80.8945 373.059 80.8363C373.275 80.7781 373.499 80.7812 373.714 80.8453C373.908 80.9948 374.101 81.5183 374.101 82.3783V360.595C374.024 361.952 373.703 363.27 373.161 364.448C372.619 365.627 371.872 366.636 370.974 367.4L357.38 377.252H357.41Z" fill="#AB8AF1"/>
<path d="M312.116 147.081C325.516 137.397 336.311 145.211 336.311 164.635C336.311 184.059 325.472 207.633 312.116 217.243C298.76 226.852 287.92 219.112 287.92 199.707C287.92 180.302 298.76 156.784 312.116 147.081Z" fill="#AB8AF1"/>
<path d="M312.116 162.336C316.448 159.195 319.962 161.738 319.962 167.944C319.815 171.364 319.028 174.691 317.665 177.657C316.301 180.622 314.4 183.143 312.116 185.013C307.783 188.154 304.269 185.611 304.269 179.404C304.416 175.985 305.203 172.658 306.566 169.692C307.93 166.726 309.831 164.206 312.116 162.336Z" fill="#AB8AF1"/>
<path d="M327.407 195.837C327.407 185.518 321.645 181.33 314.513 186.49L310.046 189.724C302.929 194.884 297.151 207.447 297.151 217.766V220.552C301.276 222.253 306.457 221.337 312.041 217.243C318.226 212.452 323.457 205.949 327.333 198.23L327.407 195.837Z" fill="#AB8AF1"/>
<path opacity="0.7" d="M312.116 162.336C316.448 159.195 319.962 161.738 319.962 167.944C319.815 171.364 319.028 174.691 317.665 177.657C316.301 180.622 314.4 183.143 312.116 185.013C307.783 188.154 304.269 185.611 304.269 179.404C304.416 175.985 305.203 172.658 306.566 169.692C307.93 166.726 309.831 164.206 312.116 162.336Z" fill="white"/>
<path opacity="0.7" d="M327.407 195.837C327.407 185.518 321.645 181.33 314.513 186.49L310.046 189.724C302.929 194.884 297.151 207.447 297.151 217.766V220.552C301.276 222.253 306.457 221.337 312.041 217.243C318.226 212.452 323.457 205.949 327.333 198.23L327.407 195.837Z" fill="white"/>
<path d="M265.302 259.96L296.437 237.396C297.926 236.367 299.013 237.19 299.013 239.265V240.555C298.965 241.679 298.708 242.772 298.26 243.747C297.812 244.721 297.188 245.55 296.437 246.164L265.302 268.728C263.888 269.756 262.726 268.915 262.726 266.859V265.569C262.775 264.446 263.033 263.353 263.481 262.378C263.928 261.404 264.552 260.575 265.302 259.96Z" fill="#AB8AF1"/>
<path opacity="0.1" d="M265.302 259.96L296.437 237.396C297.926 236.367 299.013 237.19 299.013 239.265V240.555C298.965 241.679 298.708 242.772 298.26 243.747C297.812 244.721 297.188 245.55 296.437 246.164L265.302 268.728C263.888 269.756 262.726 268.915 262.726 266.859V265.569C262.775 264.446 263.033 263.353 263.481 262.378C263.928 261.404 264.552 260.575 265.302 259.96Z" fill="black"/>
<path d="M264.022 287.199L358.214 218.925C358.914 218.402 359.494 218.813 359.494 219.86V233.657C359.468 234.217 359.339 234.761 359.117 235.248C358.895 235.734 358.586 236.15 358.214 236.461L264.022 304.734C263.307 305.258 262.726 304.828 262.726 303.8V290.003C262.752 289.441 262.883 288.894 263.108 288.407C263.333 287.92 263.646 287.506 264.022 287.199Z" fill="#AB8AF1"/>
<path opacity="0.2" d="M264.022 287.199L358.214 218.925C358.914 218.402 359.494 218.813 359.494 219.86V233.657C359.468 234.217 359.339 234.761 359.117 235.248C358.895 235.734 358.586 236.15 358.214 236.461L264.022 304.734C263.307 305.258 262.726 304.828 262.726 303.8V290.003C262.752 289.441 262.883 288.894 263.108 288.407C263.333 287.92 263.646 287.506 264.022 287.199Z" fill="white"/>
<path d="M265.302 321.336L296.437 298.771C297.926 297.743 299.013 298.584 299.013 300.64V301.93C298.967 303.054 298.709 304.148 298.261 305.123C297.814 306.098 297.188 306.926 296.437 307.539L265.302 330.103C263.888 331.15 262.726 330.309 262.726 328.234V326.944C262.777 325.821 263.036 324.73 263.484 323.756C263.931 322.782 264.554 321.953 265.302 321.336Z" fill="#AB8AF1"/>
<path opacity="0.1" d="M265.302 321.336L296.437 298.771C297.926 297.743 299.013 298.584 299.013 300.64V301.93C298.967 303.054 298.709 304.148 298.261 305.123C297.814 306.098 297.188 306.926 296.437 307.539L265.302 330.103C263.888 331.15 262.726 330.309 262.726 328.234V326.944C262.777 325.821 263.036 324.73 263.484 323.756C263.931 322.782 264.554 321.953 265.302 321.336Z" fill="black"/>
<path d="M264.022 348.574L358.214 280.3C358.914 279.777 359.494 280.207 359.494 281.235V295.032C359.468 295.592 359.339 296.136 359.117 296.623C358.895 297.11 358.586 297.525 358.214 297.836L264.022 366.11C263.307 366.633 262.726 366.222 262.726 365.175V351.378C262.752 350.816 262.883 350.269 263.108 349.782C263.333 349.295 263.646 348.881 264.022 348.574Z" fill="#AB8AF1"/>
<path opacity="0.2" d="M264.022 348.574L358.214 280.3C358.914 279.777 359.494 280.207 359.494 281.235V295.032C359.468 295.592 359.339 296.136 359.117 296.623C358.895 297.11 358.586 297.525 358.214 297.836L264.022 366.11C263.307 366.633 262.726 366.222 262.726 365.175V351.378C262.752 350.816 262.883 350.269 263.108 349.782C263.333 349.295 263.646 348.881 264.022 348.574Z" fill="white"/>
<path d="M301.588 356.407L338.813 329.468C340.302 328.421 341.403 329.262 341.403 331.337V345.77C341.355 346.895 341.095 347.989 340.644 348.964C340.194 349.939 339.566 350.766 338.813 351.378L301.588 378.336C300.1 379.364 299.013 378.523 299.013 376.466V362.015C299.064 360.893 299.324 359.802 299.771 358.828C300.219 357.854 300.841 357.025 301.588 356.407Z" fill="#AB8AF1"/>
<path opacity="0.1" d="M301.588 356.407L338.813 329.468C340.302 328.421 341.403 329.262 341.403 331.337V345.77C341.355 346.895 341.095 347.989 340.644 348.964C340.194 349.939 339.566 350.766 338.813 351.378L301.588 378.336C300.1 379.364 299.013 378.523 299.013 376.466V362.015C299.064 360.893 299.324 359.802 299.771 358.828C300.219 357.854 300.841 357.025 301.588 356.407Z" fill="black"/>
<path d="M389.736 295.499C389.736 295.499 371.451 263.83 370.379 259.979C369.53 257.137 370.379 252.912 370.647 250.949C370.915 248.986 371.153 244.612 371.421 243.471C371.868 241.34 369.679 241.77 368.443 243.714C367.208 245.659 366.791 249.547 366.15 250.183C365.51 250.819 360.641 241.901 358.095 237.788C355.549 233.675 353.956 231.17 352.392 232.703C351.276 233.806 352.109 236.199 353.956 239.714C355.034 241.606 356.028 243.572 356.934 245.603C357.217 246.369 355.698 246.425 354.879 248.014C354.239 249.248 354.879 251.249 353.985 252.202C353.436 252.727 353.059 253.488 352.927 254.34C352.795 255.191 352.918 256.074 353.271 256.82C354.928 260.088 357.066 262.93 359.569 265.195C362.309 267.569 363.411 268.41 365.034 271.645C366.657 274.879 381.219 307.913 382.201 309.894C383.184 311.876 385.075 315.914 387.949 316.026C390.823 316.138 414.348 290.713 415.554 289.442C419.426 285.385 420.661 284.806 421.317 288.451C421.543 289.747 421.712 291.058 421.823 292.377C422.284 297.013 424.801 313.577 424.801 313.577C424.801 313.577 436.713 320.812 446.495 317.316C456.278 313.82 459.583 308.604 459.583 308.604L454.684 298.584C456.01 294.452 462.129 277.702 464.11 265.98L433.437 259.755C432.811 259.586 431.799 259.269 430.459 258.839C428.776 258.278 424.503 256.427 421.272 259.979C410.73 271.514 389.765 295.499 389.765 295.499" fill="#FFA8A7"/>
<path d="M450.545 489.813L445.051 499.403C447.548 500.867 450.276 501.602 453.032 501.553C457.96 501.778 459.315 499.684 459.494 499.273C460.328 497.029 459.032 492.991 458.675 489.514L450.545 489.813Z" fill="#37474F"/>
<path d="M445.364 494.805C445.364 494.805 438.693 494.263 434.092 493.552C429.491 492.842 425.843 495.646 426.915 498.02C427.987 500.394 430.533 502.376 434.494 504.04C437.874 505.479 441.939 506.508 445.453 507.779C448.967 509.05 451.409 510.714 453.449 509.817C455.727 508.826 456.709 507.685 456.516 505.592C456.019 502.613 455.403 499.668 454.67 496.768L445.364 494.805Z" fill="#37474F"/>
<path d="M459.494 480.185C459.494 480.185 458.66 488.897 458.6 490.766C458.541 492.636 451.826 493.234 450.545 489.813L450.337 479.157L459.494 480.185Z" fill="#F28F8F"/>
<path d="M452.734 485.532L455.131 498.768C455.131 498.768 455.354 500.376 449.875 501.404C444.396 502.432 435.789 497.796 434.315 496.861C432.841 495.926 432.677 494.038 438.068 494.412C443.458 494.786 445.363 494.805 445.363 494.805L443.607 488.953L452.734 485.532Z" fill="#FFA8A7"/>
<path d="M464.02 265.868L467.817 264.54C467.817 264.54 475.753 296.079 476.632 299.126C477.51 302.173 478.508 305.389 476.796 309.146C474.756 313.614 464.02 331.58 464.02 331.58L457.201 323.205L464.943 305.407L458.094 288.021L464.02 265.868Z" fill="#F28F8F"/>
<path d="M425.024 224.907C424.134 222.809 423.682 220.462 423.711 218.085C423.739 215.709 424.248 213.38 425.188 211.316C428.97 202.511 437.397 198.23 447.433 199.856C452.079 200.623 457.558 205.465 460.551 212.7C463.856 220.72 464.169 236.872 465.018 242.985L425.024 224.907Z" fill="#37474F"/>
<path d="M424.756 228.366C424.756 228.366 422.374 234.068 422.791 234.591C423.408 235.044 424.083 235.36 424.786 235.526L424.756 228.366Z" fill="#FFA8A7"/>
<path d="M431.992 210.344C429.402 212.457 424.935 216.345 424.741 229.151C424.533 242.238 426.022 246.556 427.57 248.07C428.612 249.099 434.732 248.575 437.353 247.809C439.973 247.042 447.522 242.35 450.247 235.227C453.448 226.852 452.793 214.663 448.043 210.924C445.626 209.129 442.885 208.134 440.078 208.033C437.27 207.931 434.488 208.727 431.992 210.344Z" fill="#FFA8A7"/>
<path d="M459.494 308.529C464.08 317.503 468.428 325.355 469.38 335.487C471.346 356.781 464.914 381.121 463.529 396.881C466.133 401.364 467.634 406.706 467.847 412.248C467.847 418.773 459.494 480.185 459.494 480.185C459.494 480.185 453.419 482.503 450.337 479.157L444.604 366.184L447.582 352.425L459.494 308.529Z" fill="#AB8AF1"/>
<path opacity="0.2" d="M459.494 308.529C464.08 317.503 468.428 325.355 469.38 335.487C471.346 356.781 464.914 381.121 463.529 396.881C466.133 401.364 467.634 406.706 467.847 412.248C467.847 418.773 459.494 480.185 459.494 480.185C459.494 480.185 453.419 482.503 450.337 479.157L444.604 366.184L447.582 352.425L459.494 308.529Z" fill="black"/>
<path d="M444.604 366.184L447.582 352.425C453.284 350.54 458.783 347.797 463.961 344.255C463.961 344.255 460.864 351.34 451.96 355.229L447.359 372.896L446.971 413.37L444.604 366.184Z" fill="#AB8AF1"/>
<path opacity="0.3" d="M444.604 366.184L447.582 352.425C453.284 350.54 458.783 347.797 463.961 344.255C463.961 344.255 460.864 351.34 451.96 355.229L447.359 372.896L446.971 413.37L444.604 366.184Z" fill="black"/>
<path d="M459.494 308.529C461.951 313.577 467.817 322.177 466.566 330.458C465.077 340.479 460.759 347.527 447.627 352.425L435.298 408.509C435.298 408.509 441.715 415.987 443.681 423.222C445.646 430.457 452.734 485.569 452.734 485.569C452.734 485.569 450.53 490.075 443.606 488.991C443.606 488.991 419.47 419.82 417.773 415.314C415.713 410.751 414.991 405.427 415.733 400.265C416.492 393.011 424.667 313.614 424.667 313.614L459.494 308.529Z" fill="#AB8AF1"/>
<path opacity="0.2" d="M459.494 308.529C461.951 313.577 467.817 322.177 466.566 330.458C465.077 340.479 460.759 347.527 447.627 352.425L435.298 408.509C435.298 408.509 441.715 415.987 443.681 423.222C445.646 430.457 452.734 485.569 452.734 485.569C452.734 485.569 450.53 490.075 443.606 488.991C443.606 488.991 419.47 419.82 417.773 415.314C415.713 410.751 414.991 405.427 415.733 400.265C416.492 393.011 424.667 313.614 424.667 313.614L459.494 308.529Z" fill="black"/>
<path d="M464.02 265.868L433.348 259.642C432.722 259.474 431.71 259.156 430.37 258.726C430.37 258.726 429.059 282.88 421.183 288.414C421.376 289.573 421.54 290.863 421.689 292.34C422.151 296.976 424.667 313.54 424.667 313.54C424.667 313.54 436.579 320.774 446.361 317.279C456.144 313.783 459.449 308.567 459.449 308.567L454.55 298.546C455.92 294.377 462.085 277.627 464.02 265.868Z" fill="#AB8AF1"/>
<path opacity="0.7" d="M464.02 265.868L433.348 259.642C432.722 259.474 431.71 259.156 430.37 258.726C430.37 258.726 429.059 282.88 421.183 288.414C421.376 289.573 421.54 290.863 421.689 292.34C422.151 296.976 424.667 313.54 424.667 313.54C424.667 313.54 436.579 320.774 446.361 317.279C456.144 313.783 459.449 308.567 459.449 308.567L454.55 298.546C455.92 294.377 462.085 277.627 464.02 265.868Z" fill="white"/>
<path d="M455.935 294.564C451.862 297.635 447.594 300.28 443.175 302.472C447.186 302.372 451.112 301.009 454.595 298.509L455.935 294.564Z" fill="#AB8AF1"/>
<path d="M431.233 210.98C431.233 210.98 429.744 223.131 433.258 230.273C433.258 230.273 434.568 225.431 437.829 226.347C441.09 227.263 441.269 232.666 438.976 235.694C438.393 236.544 437.631 237.17 436.778 237.501C435.925 237.831 435.014 237.853 434.151 237.564C434.151 237.564 433.63 246.35 433.347 253.716C433.065 261.082 431.516 277.141 438.112 283.628C444.708 290.115 461.266 292.396 469.023 278.786C473.341 271.215 467.609 257.829 464.943 242.817C462.487 229.02 461.102 208.568 449.443 205.278C437.785 201.988 431.233 210.98 431.233 210.98Z" fill="#37474F"/>
<path d="M474.011 44.9511L471.554 46.8206C471.761 45.7231 471.875 44.6016 471.897 43.4742C471.897 37.2115 468.398 34.6876 464.08 37.8658C462.766 38.861 461.593 40.1247 460.61 41.6047C460.61 33.1921 455.905 29.7709 450.098 33.9772C447.038 36.4829 444.492 39.8588 442.665 43.8313C440.839 47.8038 439.784 52.2609 439.586 56.841C439.586 57.271 439.586 57.6823 439.586 58.0936C438.09 57.8572 436.576 58.2944 435.313 59.3274C433.038 61.1889 431.144 63.6979 429.786 66.6505C428.428 69.6032 427.643 72.9163 427.496 76.321C427.495 77.1125 427.56 77.902 427.689 78.6766L426.379 79.63C422.82 82.2099 419.932 87.2388 419.932 90.8469C419.932 94.455 422.82 95.315 426.379 92.7164L474.026 58.2244C477.585 55.6445 480.473 50.6156 480.473 47.0075C480.473 43.3994 477.57 42.3525 474.011 44.9511Z" fill="#EBEBEB"/>
</svg>
