<svg width="142" height="27" viewBox="0 0 142 27" fill="none" xmlns="http://www.w3.org/2000/svg">
<path d="M134.238 23.3836C132.772 23.3779 131.511 23.0171 130.454 22.3012C129.403 21.5853 128.593 20.5484 128.025 19.1904C127.463 17.8325 127.184 16.1989 127.19 14.2898C127.19 12.3864 127.471 10.7643 128.034 9.42336C128.602 8.08245 129.411 7.06257 130.463 6.3637C131.519 5.65916 132.778 5.30688 134.238 5.30688C135.698 5.30688 136.954 5.65916 138.005 6.3637C139.062 7.06825 139.875 8.09098 140.443 9.43189C141.011 10.7671 141.292 12.3864 141.286 14.2898C141.286 16.2046 141.002 17.841 140.434 19.1989C139.872 20.5569 139.065 21.5938 138.014 22.3097C136.963 23.0256 135.704 23.3836 134.238 23.3836ZM134.238 20.3239C135.238 20.3239 136.036 19.8211 136.633 18.8154C137.23 17.8097 137.525 16.3012 137.519 14.2898C137.519 12.966 137.383 11.8637 137.11 10.983C136.843 10.1023 136.463 9.44041 135.968 8.99723C135.48 8.55404 134.903 8.33245 134.238 8.33245C133.244 8.33245 132.448 8.82961 131.852 9.82393C131.255 10.8182 130.954 12.3069 130.948 14.2898C130.948 15.6307 131.082 16.7501 131.349 17.6478C131.622 18.5398 132.005 19.2103 132.5 19.6592C132.994 20.1023 133.573 20.3239 134.238 20.3239Z" fill="#371577"/>
<path d="M123.105 23.2217C122.543 23.2217 122.06 23.0228 121.656 22.6251C121.259 22.2217 121.06 21.7387 121.06 21.1762C121.06 20.6194 121.259 20.1421 121.656 19.7444C122.06 19.3467 122.543 19.1478 123.105 19.1478C123.651 19.1478 124.128 19.3467 124.537 19.7444C124.946 20.1421 125.151 20.6194 125.151 21.1762C125.151 21.5512 125.054 21.895 124.861 22.2075C124.674 22.5143 124.426 22.7615 124.12 22.949C123.813 23.1308 123.475 23.2217 123.105 23.2217Z" fill="#371577"/>
<path d="M105.832 23.0001V20.341L112.045 14.5881C112.573 14.0768 113.017 13.6165 113.375 13.2075C113.738 12.7984 114.014 12.3978 114.201 12.0057C114.389 11.608 114.482 11.179 114.482 10.7188C114.482 10.2075 114.366 9.76711 114.133 9.39779C113.9 9.02279 113.582 8.73586 113.178 8.537C112.775 8.33245 112.318 8.23018 111.806 8.23018C111.272 8.23018 110.806 8.33814 110.409 8.55404C110.011 8.76995 109.704 9.07961 109.488 9.48302C109.272 9.88643 109.164 10.3665 109.164 10.9234H105.661C105.661 9.78132 105.92 8.78984 106.437 7.94893C106.954 7.10802 107.678 6.45745 108.61 5.99723C109.542 5.537 110.616 5.30688 111.832 5.30688C113.082 5.30688 114.17 5.52848 115.096 5.97166C116.028 6.40916 116.752 7.01711 117.269 7.79552C117.786 8.57393 118.045 9.46598 118.045 10.4717C118.045 11.1307 117.914 11.7813 117.653 12.4234C117.397 13.0654 116.94 13.7785 116.281 14.5626C115.622 15.341 114.693 16.2756 113.494 17.3665L110.946 19.8637V19.983H118.275V23.0001H105.832Z" fill="#371577"/>
<path d="M97.9462 9.90919V12.6365H90.0627V9.90919H97.9462ZM91.8525 6.77283H95.4832V18.9774C95.4832 19.3126 95.5343 19.574 95.6366 19.7615C95.7388 19.9433 95.8809 20.0711 96.0627 20.145C96.2502 20.2189 96.4661 20.2558 96.7104 20.2558C96.8809 20.2558 97.0513 20.2416 97.2218 20.2132C97.3923 20.1791 97.5229 20.1535 97.6138 20.1365L98.1849 22.8382C98.003 22.895 97.7474 22.9603 97.4178 23.0342C97.0883 23.1137 96.6877 23.162 96.2161 23.1791C95.3411 23.2132 94.5741 23.0967 93.915 22.8296C93.2616 22.5626 92.753 22.1478 92.3894 21.5853C92.0258 21.0228 91.8468 20.3126 91.8525 19.4546V6.77283Z" fill="#371577"/>
<path d="M79.6842 15.4318V23H76.0535V9.9091H79.5137V12.2188H79.6671C79.9569 11.4574 80.4427 10.8551 81.1245 10.4119C81.8063 9.96308 82.633 9.73865 83.6046 9.73865C84.5137 9.73865 85.3063 9.93751 85.9825 10.3352C86.6586 10.733 87.1842 11.3011 87.5592 12.0398C87.9342 12.7727 88.1217 13.6477 88.1217 14.6648V23H84.491V15.3125C84.4967 14.5114 84.2921 13.8864 83.8773 13.4375C83.4626 12.983 82.8916 12.7557 82.1643 12.7557C81.6756 12.7557 81.2438 12.8608 80.8688 13.071C80.4995 13.2813 80.2097 13.5881 79.9995 13.9915C79.795 14.3892 79.6898 14.8693 79.6842 15.4318Z" fill="#371577"/>
<path d="M65.8644 23.2472C65.0292 23.2472 64.2849 23.1023 63.6315 22.8125C62.9781 22.5171 62.461 22.0824 62.0804 21.5085C61.7054 20.929 61.5179 20.2074 61.5179 19.3438C61.5179 18.6165 61.6514 18.0057 61.9184 17.5114C62.1855 17.0171 62.5491 16.6193 63.0093 16.3182C63.4696 16.0171 63.9923 15.7898 64.5775 15.6364C65.1684 15.483 65.7877 15.375 66.4355 15.3125C67.1968 15.233 67.8105 15.1591 68.2764 15.0909C68.7423 15.0171 69.0804 14.9091 69.2906 14.7671C69.5008 14.625 69.6059 14.4148 69.6059 14.1364V14.0852C69.6059 13.5455 69.4355 13.1279 69.0946 12.8324C68.7593 12.5369 68.2821 12.3892 67.6627 12.3892C67.0093 12.3892 66.4894 12.5341 66.1031 12.8239C65.7167 13.108 65.461 13.4659 65.336 13.8977L61.9781 13.625C62.1485 12.8296 62.4838 12.1421 62.9838 11.5625C63.4838 10.9773 64.1286 10.5284 64.9184 10.2159C65.7139 9.89774 66.6343 9.73865 67.6798 9.73865C68.4071 9.73865 69.1031 9.82388 69.7679 9.99433C70.4383 10.1648 71.0321 10.429 71.5491 10.7869C72.0718 11.1449 72.4838 11.6051 72.7849 12.1676C73.086 12.7244 73.2366 13.3921 73.2366 14.1705V23H69.7934V21.1847H69.6911C69.4809 21.5938 69.1997 21.9546 68.8474 22.2671C68.4951 22.5739 68.0718 22.8154 67.5775 22.9915C67.0832 23.1619 66.5122 23.2472 65.8644 23.2472ZM66.9042 20.7415C67.4383 20.7415 67.9099 20.6364 68.319 20.4261C68.7281 20.2102 69.0491 19.9205 69.2821 19.5568C69.515 19.1932 69.6315 18.7813 69.6315 18.321V16.9318C69.5179 17.0057 69.3616 17.0739 69.1627 17.1364C68.9696 17.1932 68.7508 17.2472 68.5065 17.2983C68.2622 17.3438 68.0179 17.3864 67.7735 17.4261C67.5292 17.4602 67.3076 17.4915 67.1088 17.5199C66.6826 17.5824 66.3105 17.6818 65.9923 17.8182C65.6741 17.9546 65.4269 18.1392 65.2508 18.3722C65.0747 18.5994 64.9866 18.8835 64.9866 19.2244C64.9866 19.7188 65.1656 20.0966 65.5235 20.358C65.8872 20.6136 66.3474 20.7415 66.9042 20.7415Z" fill="#371577"/>
<path d="M55.5925 23V9.90914H59.2232V23H55.5925ZM57.4163 8.22164C56.8766 8.22164 56.4135 8.04266 56.0271 7.6847C55.6465 7.32107 55.4561 6.88641 55.4561 6.38073C55.4561 5.88073 55.6465 5.45175 56.0271 5.0938C56.4135 4.73016 56.8766 4.54834 57.4163 4.54834C57.9561 4.54834 58.4163 4.73016 58.797 5.0938C59.1834 5.45175 59.3766 5.88073 59.3766 6.38073C59.3766 6.88641 59.1834 7.32107 58.797 7.6847C58.4163 8.04266 57.9561 8.22164 57.4163 8.22164Z" fill="#371577"/>
<path d="M45.1585 23.2131C44.1642 23.2131 43.2636 22.9575 42.4568 22.4461C41.6557 21.9291 41.0193 21.1705 40.5477 20.1705C40.0818 19.1649 39.8489 17.9319 39.8489 16.4717C39.8489 14.9717 40.0903 13.7245 40.5733 12.7302C41.0562 11.7302 41.6983 10.983 42.4994 10.4887C43.3062 9.98871 44.1898 9.73871 45.15 9.73871C45.883 9.73871 46.4937 9.86371 46.9824 10.1137C47.4767 10.358 47.8744 10.6649 48.1756 11.0342C48.4824 11.3978 48.7153 11.7558 48.8744 12.108H48.9852V5.54553H52.6074V23.0001H49.0278V20.9035H48.8744C48.704 21.2671 48.4625 21.6279 48.15 21.9859C47.8432 22.3381 47.4426 22.6308 46.9483 22.8637C46.4597 23.0967 45.8631 23.2131 45.1585 23.2131ZM46.3091 20.3239C46.8943 20.3239 47.3886 20.1649 47.792 19.8467C48.2011 19.5228 48.5136 19.0711 48.7295 18.4916C48.9511 17.912 49.0619 17.233 49.0619 16.4546C49.0619 15.6762 48.954 15.0001 48.7381 14.4262C48.5222 13.8524 48.2097 13.4092 47.8006 13.0967C47.3915 12.7842 46.8943 12.6279 46.3091 12.6279C45.7125 12.6279 45.2097 12.7899 44.8006 13.1137C44.3915 13.4376 44.0818 13.8864 43.8716 14.4603C43.6614 15.0342 43.5562 15.6989 43.5562 16.4546C43.5562 17.216 43.6614 17.8893 43.8716 18.4745C44.0875 19.0541 44.3972 19.5086 44.8006 19.8381C45.2097 20.162 45.7125 20.3239 46.3091 20.3239Z" fill="#371577"/>
<path d="M33.7999 17.4262V9.90918H37.4305V23.0001H33.9447V20.6222H33.8084C33.5129 21.3893 33.0214 22.0058 32.3339 22.4717C31.6521 22.9376 30.8197 23.1705 29.8368 23.1705C28.9618 23.1705 28.1919 22.9717 27.5271 22.574C26.8624 22.1762 26.3425 21.6109 25.9675 20.8779C25.5982 20.145 25.4107 19.2671 25.405 18.2444V9.90918H29.0357V17.5967C29.0413 18.3694 29.2487 18.9802 29.6578 19.4291C30.0669 19.8779 30.6152 20.1024 31.3027 20.1024C31.7402 20.1024 32.1493 20.0029 32.53 19.8041C32.9106 19.5995 33.2175 19.2984 33.4504 18.9007C33.6891 18.5029 33.8055 18.0115 33.7999 17.4262Z" fill="#371577"/>
<path d="M23.0399 9.90919V12.6365H15.1564V9.90919H23.0399ZM16.9462 6.77283H20.5769V18.9774C20.5769 19.3126 20.628 19.574 20.7303 19.7615C20.8325 19.9433 20.9746 20.0711 21.1564 20.145C21.3439 20.2189 21.5598 20.2558 21.8041 20.2558C21.9746 20.2558 22.145 20.2416 22.3155 20.2132C22.4859 20.1791 22.6166 20.1535 22.7075 20.1365L23.2786 22.8382C23.0967 22.895 22.8411 22.9603 22.5115 23.0342C22.182 23.1137 21.7814 23.162 21.3098 23.1791C20.4348 23.2132 19.6678 23.0967 19.0087 22.8296C18.3553 22.5626 17.8467 22.1478 17.4831 21.5853C17.1195 21.0228 16.9405 20.3126 16.9462 19.4546V6.77283Z" fill="#371577"/>
<path d="M2.86875e-06 1.04526L2.71774 26.9028L12.6342 25.8606L12.1605 21.3532L5.35547 22.0684L4.70788 15.907L11.0027 15.2454L10.5289 10.738L4.23414 11.3996L3.58522 5.22563L10.419 4.50738L9.94522 -2.10365e-05L2.86875e-06 1.04526Z" fill="#371577"/>
</svg>
